<svg xmlns="http://www.w3.org/2000/svg" id="Group_282" data-name="Group 282" viewBox="0 0 193.763 92.973">
    <defs>
        <style>
            .cls-1{fill:#fff}
        </style>
    </defs>
    <path id="Path_45" d="M853.242 270.683c-.268-2.32-6.474 1.792-12.869 3.216-6.112 1.362-12.4.123-13.846-4.32-.346-1.055 2.363-1.743 5.214-2.9a43.7 43.7 0 0 0 8.789-4.8c10.743-7.585 12.476-15.574 3.4-22.852-4.395-3.522-15.09-3.461-21.139.577-9.057 6.038-12.034 24.362-5.293 35.1-17.736 11.181-26.368-6.713-18.808-24.963 1.056-2.565 5.592-9.45 11.8-12.666 7.073-3.67 15.925-2.05 15.925-5.744 0-5.646-12.916-4.173-12.916-4.173a36.888 36.888 0 0 0-14.066 4.6c-5.671 3.2-11.231 8.419-14.445 18.962-6.616 21.723 2.678 38.783 18.9 38.783 12.727 0 20.225-5.29 22.855-7.572a19.111 19.111 0 0 0 2.914.65c11.456 1.602 24.514-3.86 23.585-11.898zM824.2 251.917c1.78-4.185 5.686-6.664 9.2-5.682s4.347 5.29 2.174 9.352c-1.4 2.626-5.545 6.652-9.057 5.67s-3.566-6.419-2.317-9.34z" class="cls-1" data-name="Path 45" transform="translate(-659.526 -199.117)"/>
    <path id="Path_46" d="M85.316 58.168s-6.1-28.093-22.43-25.5c-3.639.577-7.309 3.007-10.617 6.554-.047-2.148-.126-4.369-.2-6.615-.473-13.783-1.386-28.375-2.426-30.388-1.827-3.584-7.167-2.823-9.514.8-1.843 2.835-4.741 29.5-4.741 29.5s-18.3.761-28.274 9.634c-7.671 6.824-13.121 22.656 5.4 31.075 9.876 4.492 19.863 1.865 27.329-2.774.016.589.047 1.166.095 1.743a17.285 17.285 0 0 0 2.473 8.382c1.8 2.958 5.009 5.817 10.128 7.462C64.43 91.87 70.73 81.99 71.455 80.8c.9-1.117 1.575-1.951 2.111-2.111 2.552-.761.173 8.444 3.686 11.3a12.978 12.978 0 0 0 5.812 2.663v.012s9.246 1.927 7.451-6.578c-1.182-10.011-5.199-27.918-5.199-27.918zM24.7 58.6c-4.363-1.448-5.419-7.155-2.363-12.752s9.073-8.947 13.436-7.5S41.2 45.5 38.14 51.1s-9.073 8.946-13.44 7.5zm41 5.535c-1.481 6.75-4.473 11.978-6.694 11.684-2.205-.295-2.788-6-1.307-12.752s4.478-11.98 6.701-11.685c2.2.294 2.786 6.018 1.305 12.751z" class="cls-1" data-name="Path 46" transform="translate(.013 .118)"/>
    <path id="Path_47" d="M582.584 162.3c-5.041 0-5.671 4.909-5.671 4.909l-3.576 16.507c-1.245 6.5-1.7 11.893-2.835 11.893-.992 0-.693-7.192-1.811-14.8-.457-3.056-.5-6.186-1.118-8.935-.315-4.8-3.875-7.965-11.247-6.726-6.8 1.141-13.279 2.921-12.979 7.72a1.3 1.3 0 0 0 .032.245c-.142 5.695.882 14.212 1.717 21.969 1.071 9.917 2.363 18.569 5.97 18.459 4.568-.135 4.3-6.321 4.82-13.328.268-3.535.268-7.781.441-10.616.11-1.866.221-3.117.851-3.117.646 0 .63 1.129.74 2.946.157 2.283.047 5.682.346 9.3 1.008 12.3 1.386 32.585 9.309 32.585 4.93 0 6.033-11.07 10.049-26.9 1.323-5.216 9.688-37.2 9.688-37.2s.945-4.911-4.726-4.911z" class="cls-1" data-name="Path 47" transform="translate(-457.75 -142.366)"/>
    <path id="Path_48" d="M94 186.383l2.977-9.683h-3.516l-2.961 9.683z" class="cls-1" data-name="Path 48" transform="translate(-76.243 -154.999)"/>
    <path id="Path_49" d="M111.983 143.7a2.543 2.543 0 0 0 1.323.344 2.845 2.845 0 0 0 .929-.147 3.016 3.016 0 0 0 .772-.393 2.14 2.14 0 0 0 .535-.589 1.462 1.462 0 0 0 .2-.724 1.156 1.156 0 0 0-.583-1.043 2.666 2.666 0 0 0-1.323-.344 2.846 2.846 0 0 0-.929.147 2.78 2.78 0 0 0-.772.393 2.143 2.143 0 0 0-.536.589 1.346 1.346 0 0 0-.2.724 1.126 1.126 0 0 0 .584 1.043z" class="cls-1" data-name="Path 49" transform="translate(-93.851 -123.505)"/>
    <path id="Path_50" d="M137.762 164.928a2.54 2.54 0 0 0 1.276 1.031 6.805 6.805 0 0 0 2.52.38 11.242 11.242 0 0 0 1.953-.147 15.355 15.355 0 0 0 1.528-.344l-.252-2.1c-.362.1-.725.172-1.071.233a8.14 8.14 0 0 1-1.1.086 2.948 2.948 0 0 1-1.04-.147 1.017 1.017 0 0 1-.536-.417 1.046 1.046 0 0 1-.126-.638 3.131 3.131 0 0 1 .173-.785l1.04-3.387h3.891l.709-2.246H142.8l.9-2.847-3.655.442-2.315 7.621a7.733 7.733 0 0 0-.331 1.78 2.891 2.891 0 0 0 .363 1.485z" class="cls-1" data-name="Path 50" transform="translate(-115.755 -134.734)"/>
    <path id="Path_51" d="M31.568 150.849L33 146.173h4.127l.709-2.332h-4.142l.142-.454a2.554 2.554 0 0 1 .866-1.276 2.97 2.97 0 0 1 1.922-.5 6.276 6.276 0 0 1 .866.061c.252.049.536.1.819.16l1.244-2.136a7.7 7.7 0 0 0-1.055-.27 9.324 9.324 0 0 0-1.717-.123 7.476 7.476 0 0 0-4.316 1.068 5.478 5.478 0 0 0-2.126 3.019l-2.457 8.027a13.356 13.356 0 0 1-.488 1.387c-.11.295-.252.577-.394.871h3.528a22.887 22.887 0 0 0 1.04-2.826z" class="cls-1" data-name="Path 51" transform="translate(-22.745 -122.189)"/>
</svg>
